<svg width="265" height="265" viewBox="0 0 265 265" fill="none" xmlns="http://www.w3.org/2000/svg">
<g filter="url(#filter0_d_250_796)">
<path d="M144.498 252C-10.9329 236.308 23.928 -42.3481 180.485 24.7404C186.77 27.434 193.022 32.5057 198.432 36.355C202.616 39.3315 204.575 43.9579 208.606 47.2234C188.29 38.5361 163.153 45.6052 136.639 58.6815C86.9987 93.6894 53.229 175.293 144.498 252Z" fill="url(#paint0_linear_250_796)"/>
<path d="M138.448 57.9601L121.741 15.0506C159.892 9.39748 188.616 28.0084 198.432 36.355C215.387 50.77 218.504 66.8679 220.451 80.9824C227.073 128.981 171.794 168.083 161.97 167.513C188.559 154.546 190.328 124.353 184.442 101.799C177.059 73.5049 155.472 52.9081 138.448 57.9601Z" fill="url(#paint1_linear_250_796)"/>
</g>
<defs>
<filter id="filter0_d_250_796" x="42.1827" y="14" width="180.635" height="241.635" filterUnits="userSpaceOnUse" color-interpolation-filters="sRGB">
<feFlood flood-opacity="0" result="BackgroundImageFix"/>
<feColorMatrix in="SourceAlpha" type="matrix" values="0 0 0 0 0 0 0 0 0 0 0 0 0 0 0 0 0 0 127 0" result="hardAlpha"/>
<feOffset dy="1.8173"/>
<feGaussianBlur stdDeviation="0.908648"/>
<feComposite in2="hardAlpha" operator="out"/>
<feColorMatrix type="matrix" values="0 0 0 0 0 0 0 0 0 0 0 0 0 0 0 0 0 0 0.78 0"/>
<feBlend mode="normal" in2="BackgroundImageFix" result="effect1_dropShadow_250_796"/>
<feBlend mode="normal" in="SourceGraphic" in2="effect1_dropShadow_250_796" result="shape"/>
</filter>
<linearGradient id="paint0_linear_250_796" x1="132.5" y1="14" x2="397.905" y2="410.177" gradientUnits="userSpaceOnUse">
<stop stop-color="white"/>
<stop offset="1" stop-color="#999999"/>
</linearGradient>
<linearGradient id="paint1_linear_250_796" x1="132.5" y1="14" x2="397.905" y2="410.177" gradientUnits="userSpaceOnUse">
<stop stop-color="white"/>
<stop offset="1" stop-color="#999999"/>
</linearGradient>
</defs>
</svg>
